<?xml version="1.0" encoding="utf-8"?>
<!-- Generator: Adobe Illustrator 16.0.2, SVG Export Plug-In . SVG Version: 6.00 Build 0)  -->
<!DOCTYPE svg PUBLIC "-//W3C//DTD SVG 1.1//EN" "http://www.w3.org/Graphics/SVG/1.1/DTD/svg11.dtd">
<svg version="1.1" id="圖層_1" xmlns="http://www.w3.org/2000/svg" xmlns:xlink="http://www.w3.org/1999/xlink" x="0px" y="0px"
	 width="357.788px" height="204.266px" viewBox="0 0 357.788 204.266" enable-background="new 0 0 357.788 204.266"
	 xml:space="preserve" fill="#FFF">
<g>
	<path d="M47.859,67.384c3.635-0.318,7.063-0.764,10.698-1.082c8.353-0.535,16.755-1.611,25.175-1.102
		c1.792,0.111,3.624,0.391,5.237,1.25c2.116,0.743,3.461,2.726,3.93,4.735c0.273,1.173,0.251,2.591-0.185,3.752
		c-0.794,2.657-2.413,4.802-4.071,6.777c-1.915,2.39-4.037,4.651-5.992,6.872c-6.326,6.951-13.144,13.31-19.678,20.131
		c-6.237,6.577-12.681,13.024-18.673,19.896c-5.143,5.969-10.324,11.77-15.054,17.994c-6.903,9.026-13.431,18.144-18.926,27.902
		c-2.876,5.086-5.378,10.261-6.719,15.872c-0.318,1.663-0.431,3.456-0.374,5.209c-0.09,0.374,0.027,0.877,0.105,1.212
		c0.43,1.843,1.747,2.948,3.449,3.434c2.865,0.922,5.662,0.799,8.459,0.678c3.468-0.279,6.856-0.893,10.207-1.674l7.369-1.719
		c3.518-0.82,7.203-1.68,10.811-2.875c6.08-1.947,11.992-3.855,17.867-5.933c5.074-1.714,10.15-3.427,15.393-5.179
		c5.076-1.714,9.945-3.556,15.021-5.27c6.544-2.232,13.009-4.8,19.721-7.071c5.578-1.831,11.245-4.035,16.991-5.905
		c6.376-2.193,12.713-4.555,19.297-6.619c1.635-0.559,3.311-0.949,5.152-1.379l2.178-0.508c0.67-0.156,1.34-0.313,2.088-0.133
		c0.414,0.256,0.826,0.514,0.904,0.848l0.078,0.336c-0.051,0.541-0.553,0.658-1.055,0.775l-1.843,0.43
		c-5.192,1.211-10.229,3.092-15.433,5.012c-6.209,2.154-12.418,4.309-18.716,6.838l-11.206,4.203
		c-4.406,1.557-8.979,3.152-13.384,4.71s-8.771,3.282-13.178,4.839l-13.718,4.789c-4.573,1.597-9.274,3.398-13.848,4.995
		c-4.572,1.597-9.185,3.024-13.629,4.415c-3.607,1.194-7.253,2.221-10.938,3.08c-2.177,0.508-4.227,0.81-6.403,1.317
		c-4.563,0.888-9.409,1.312-14.115,0.818c-2.747-0.419-5.197-1.083-7.213-2.909c-1.77-1.53-2.908-3.384-3.377-5.394
		c-0.156-0.67-0.273-1.173-0.263-1.882c-0.005-2.295,0.364-4.5,0.938-6.577c1.547-5.482,4.089-10.49,6.836-15.37
		c4.121-7.318,9.029-14.291,13.811-21.059c4.818-6.599,9.923-12.733,15.026-18.869c4.976-5.929,10.196-11.562,15.418-17.194
		c6.03-6.704,12.682-13.024,18.88-19.769c5.092-5.426,10.431-10.557,15.109-16.239c1.324-1.898,2.687-3.629,3.597-5.784
		c0.346-0.787,0.525-1.535,0.447-1.87c-0.156-0.67-0.776-1.056-1.898-1.323c-2.825-0.754-5.829-0.761-8.626-0.638
		c-7.052,0.056-13.986,0.612-20.882,1.337c-3.093,0.369-6.187,0.736-9.357,0.77c-1.044,0.066-1.96-0.072-3.004-0.006
		c-1.457-0.189-2.697-0.961-3.512-2.184c-0.491-0.592-0.814-1.223-0.932-1.725c-0.234-1.006,0.072-1.96,0.715-2.992
		c0.899-1.447,2.044-2.597,3.355-3.786c2.624-2.378,5.327-4.421,7.99-6.632c10.604-8.301,21.983-15.547,33.157-22.921
		c10.374-7.011,21.278-13.263,32.301-19.013c6.182-3.031,12.401-5.895,18.738-8.256c3.233-1.283,6.377-2.192,9.727-2.974
		l1.005-0.234c2.848-0.664,5.517-0.58,8.354-0.535c1.25,0.062,2.411,0.497,3.533,0.766c2.825,0.754,4.662,3.327,5.287,6.008
		c0.313,1.34,0.419,2.552,0.149,3.674c-0.586,2.786-1.792,5.187-3.166,7.626c-0.771,1.239-1.541,2.479-2.272,3.887
		c-1.028,1.652-2.262,3.176-2.838,5.253c-0.128,0.206-0.256,0.413-0.424,0.452l-0.168,0.039c-0.334,0.078-0.58-0.219-0.697-0.721
		c-0.156-0.67,0.022-1.417,0.24-1.998c0.396-1.329,1.039-2.361,1.642-3.563c1.76-3.06,3.647-6.326,4.954-9.809
		c0.269-1.123,0.703-2.284,0.765-3.534c0.09-0.374,0.012-0.709-0.066-1.044c-0.195-0.838-0.726-1.598-1.513-1.943
		c-0.865-0.682-2.027-1.117-3.109-1.218c-2.58-0.458-5.003-0.246-7.387,0.134l-3.183,0.742c-6.868,1.602-13.708,4.079-20.224,7.188
		c-9.582,4.354-18.84,9.339-27.813,14.787C89.023,34.118,77.012,41.688,65.7,49.978c-5.444,3.918-11.056,7.877-16.009,12.387
		c-1.184,0.982-2.161,2.094-3.306,3.244c-0.257,0.412-0.888,0.736-0.731,1.406C46.313,67.567,47.15,67.372,47.859,67.384z"/>
	<path d="M160.109,121.506c4.566-2.442,8.785-5.306,12.745-8.734c2.071-1.86,4.115-3.841,5.545-6.304l0.273-0.439
		c0.091-0.146,0.182-0.293,0.42-0.349c0.118-0.027,0.266,0.063,0.412,0.155l0.292,0.182c0.056,0.237-0.154,0.412-0.245,0.559
		c-0.399,0.97-0.946,1.85-1.64,2.637c-2.206,2.895-5.026,5.307-8.021,7.508c-4.372,3.273-9.002,5.982-14.008,8.152
		c-0.922,0.34-1.937,0.826-3.006,1.076c-0.476,0.11-0.831,0.193-1.335,0.187c-3.08,0.217-5.579-0.829-7.614-3.11
		c-0.522-0.63-0.927-1.287-1.303-1.826c-0.202-0.328-0.495-0.51-0.732-0.455c-0.119,0.027-0.21,0.174-0.301,0.321
		c-0.812,0.815-1.505,1.603-2.198,2.392c-3.164,3.619-6.329,7.238-9.319,11.066c-0.393,0.468-0.665,0.907-0.618,1.647
		c0.048,0.741-0.61,1.145-1.148,1.521l-0.119,0.028c-0.475,0.11-1.062-0.254-1.172-0.729c-0.028-0.119-0.083-0.355,0.008-0.502
		c0.1-0.65,0.491-1.117,0.855-1.703c2.088-2.867,4.321-5.643,6.555-8.419c1.842-2.308,3.831-4.525,5.7-6.716
		c0.603-0.641,0.847-1.199,0.681-1.912c-0.027-0.119-0.201-0.328-0.257-0.566c-0.919-1.79-1.362-3.691-1.806-5.592l-0.914-3.92
		c-0.276-1.189-0.344-2.551-0.41-3.913c-0.021-0.622,0.161-0.915,0.518-0.997c0.237-0.057,0.622-0.021,0.915,0.161
		c0.705,0.337,1.199,0.849,1.394,1.681l0.083,0.355c0.27,1.691,0.42,3.41,0.808,5.073l0.194,0.831
		c0.451,1.398,0.784,2.824,1.207,4.104c0.257,0.566,0.432,0.775,0.669,0.721c0.119-0.028,0.328-0.203,0.63-0.523
		c2.38-2.685,4.852-5.516,7.351-8.228c3.011-3.207,6.167-6.323,9.352-9.321c1.259-1.045,2.49-2.209,3.924-3.045
		c0.238-0.055,0.33-0.201,0.447-0.229c0.832-0.194,1.327,0.317,1.64,1.12c0.111,0.477,0.104,0.979-0.344,1.209
		c-1.497,1.1-2.618,2.74-4.317,3.512c-0.356,0.084-0.657,0.404-0.958,0.725c-4.864,4.391-9.352,9.32-13.985,14.16
		c-0.693,0.787-1.478,1.722-2.289,2.537c-0.42,0.349-0.456,0.732-0.345,1.209l0.11,0.475c0.745,1.58,1.727,3.105,3.101,4.162
		c1.255,1.086,2.546,1.787,4.565,1.315l0.357-0.083C155.397,123.857,157.753,122.682,160.109,121.506z"/>
	<path d="M189.168,97.317c-4.653,4.217-8.136,9.162-10.097,15.257c-0.372,1.089-0.599,2.269-0.467,3.366
		c-0.009,0.503,0.074,0.859,0.13,1.097c0.276,1.188,0.981,1.524,2.49,1.548c0.503,0.009,0.86-0.074,1.216-0.157
		c0.951-0.222,1.846-0.681,2.768-1.021c4.741-2.233,8.987-4.978,13.296-7.985c3.952-2.927,7.905-5.853,11.188-9.5
		c0.392-0.467,0.903-0.962,1.414-1.457c0.091-0.146,0.301-0.32,0.419-0.348c0.238-0.056,0.385,0.035,0.531,0.127
		c0.147,0.091,0.175,0.209,0.175,0.209c0.083,0.356-0.127,0.531-0.337,0.705c-1.45,1.842-3.046,3.592-4.788,5.25
		c-6.27,5.346-12.916,10.152-20.14,14.092c-1.224,0.661-2.475,1.204-3.663,1.48l-0.831,0.194c-2.761,0.519-5.572-1.331-6.209-4.063
		c-0.083-0.357-0.139-0.594-0.104-0.979c-0.15-1.719,0.202-3.43,0.793-5.195c2.227-6.031,5.771-11.242,10.69-15.396
		c0.748-0.549,1.496-1.1,2.42-1.44l0.237-0.056c1.545-0.359,2.415,0.689,2.958,1.941l0.083,0.355
		c0.249,1.07-0.543,2.508-1.438,2.967l-0.118,0.027c-0.595,0.139-0.915-0.162-1.054-0.756l-0.055-0.238
		c0.035-0.385,0.336-0.705,0.226-1.18C190.217,96.446,189.679,96.822,189.168,97.317z"/>
	<path d="M246.356,66.442c-0.594,0.139-0.958,0.726-1.204,1.283c-3.382,4.297-6.646,8.565-10.001,12.98
		c-6.982,9.27-13.791,18.749-20.746,28.139c-1.604,2.252-3.236,4.387-5.015,6.43c-0.183,0.293-0.482,0.613-0.784,0.935
		c-0.42,0.349-0.749,0.551-1.224,0.661c-0.476,0.111-0.859,0.075-1.417-0.17c-0.705-0.337-1.201-0.848-1.395-1.68
		c-0.028-0.119,0.036-0.385-0.02-0.621c0.171-1.418,0.459-2.863,1.015-4.246c1.299-3.56,2.982-7.084,4.84-10.398
		c0.674-1.41,1.374-2.7,2.341-3.928c0.364-0.586,0.693-0.788,1.051-0.871c0.475-0.111,0.886,0.043,1.5,0.526
		c0.321,0.302,0.641,0.603,0.725,0.959c0.083,0.356-0.071,0.769-0.491,1.116c-1.807,1.925-2.733,4.396-3.953,6.685
		c-1.312,2.436-2.476,4.962-3.347,7.671c-0.063,0.265-0.246,0.558-0.107,1.151c0.482-0.613,0.994-1.108,1.387-1.576
		c3.437-4.058,6.729-8.208,9.874-12.448c7.529-10.149,14.938-20.271,22.35-30.392c0.21-0.175,0.42-0.349,0.456-0.732
		c-1.517,0.479-2.915,0.93-4.285,1.5c-4.733,1.729-9.557,3.606-14.288,5.337c-3.664,1.48-7.445,2.988-11.137,4.351
		c-1.846,0.681-3.782,1.509-5.684,1.952c-1.068,0.248-1.802-0.207-1.995-1.038c-0.028-0.119-0.083-0.356-0.021-0.622
		c-0.11-0.475,0.191-0.796,0.61-1.145c0.931-0.844,1.89-1.568,3.021-2.083c0.238-0.056,0.329-0.202,0.566-0.257
		c0.475-0.111,0.915,0.162,1.318,0.82c0.258,0.566,0.496,0.511,0.972,0.4c2.648-0.994,5.179-1.96,7.737-2.808l10.717-4.003
		l11.073-4.084c1.041-0.369,1.963-0.709,2.914-0.931c0.686-0.285,1.105-0.634,1.588-1.247c3.054-4.095,6.199-8.336,9.371-12.458
		c0.967-1.228,2.08-2.363,3.192-3.5c0.302-0.321,0.722-0.669,1.141-1.018c0.21-0.175,0.329-0.202,0.566-0.257
		c0.357-0.084,0.622-0.021,1.062,0.253c0.586,0.364,1.081,0.876,1.247,1.589c0.083,0.355,0.075,0.858-0.079,1.271
		c-0.317,1.327-0.899,2.591-1.509,3.733c-0.92,1.969-1.866,3.818-2.813,5.668c-0.182,0.293-0.364,0.586-0.281,0.941
		c0.266,0.064,0.412,0.155,0.65,0.1c0.237-0.056,0.447-0.229,0.566-0.258c2.229-0.645,4.432-1.408,6.66-2.055
		c2.56-0.847,4.998-1.666,7.438-2.485c4.193-1.354,8.416-2.589,12.61-3.942c1.397-0.451,2.823-0.784,4.103-1.207
		c5.025-1.549,10.197-3.005,15.307-4.196l2.375-0.554c1.691-0.27,3.501-0.566,5.185-0.332c0.411,0.153,0.796,0.189,1.18,0.225
		c0.412,0.155,0.761,0.575,0.844,0.932c0.11,0.475-0.044,0.887-0.317,1.326c-0.092,0.146-0.328,0.202-0.447,0.23
		c-0.119,0.027-0.238,0.055-0.384-0.037c-0.733-0.455-1.564-0.261-2.425-0.186c-2.961,0.19-5.841,0.736-8.691,1.4
		c-2.376,0.555-4.844,1.256-7.22,1.81c-4.487,1.171-8.827,2.434-13.14,3.815c-2.916,0.93-5.858,1.742-8.892,2.7
		c-3.39,1.041-6.752,2.2-10.233,3.389c-1.991,0.589-3.956,1.298-5.948,1.888c-0.685,0.285-0.985,0.605-1.351,1.192
		c-3.695,7.25-7.363,14.619-10.767,22.052c-6.306,13.246-11.934,26.709-17.271,40.355c-1.291,3.057-2.317,6.178-3.315,9.417
		c-0.809,2.443-1.644,4.768-2.452,7.21c-0.218,0.678-0.464,1.236-0.298,1.949c0.139,0.594-0.772,2.059-1.365,2.197l-0.238,0.056
		c-0.595,0.139-1.299-0.198-1.465-0.911c-0.056-0.238-0.083-0.356-0.021-0.621c0.29-1.446,0.727-2.801,1.015-4.246
		c1.786-6.304,4.279-12.271,6.742-18.357c4.5-11.322,9.146-22.553,14.087-33.6c3.557-7.845,7.113-15.689,10.964-23.352
		c0.273-0.439,0.428-0.852,0.583-1.264c-0.028-0.119-0.056-0.237-0.175-0.209C249.572,65.192,247.964,65.817,246.356,66.442z
		 M225.072,79.925c-1.622,1.631-2.807,3.535-3.964,5.56l-0.547,0.879c-0.182,0.293-0.273,0.44-0.218,0.677
		c0.055,0.238,0.202,0.329,0.376,0.539c0.202,0.329,0.376,0.539,0.404,0.658c0.083,0.355-0.1,0.648-0.428,0.852
		c-0.301,0.319-0.539,0.375-0.776,0.431c-0.356,0.083-0.741,0.047-1.061-0.254c-0.468-0.392-0.697-0.84-0.836-1.434
		c-0.083-0.356-0.075-0.859,0.079-1.271c0.325-1.83,1.063-3.505,1.973-4.971c0.911-1.465,1.85-2.811,3.054-4.094
		c0.21-0.174,0.483-0.614,0.84-0.697c0.119-0.027,0.355-0.083,0.503,0.008c0.677,0.218,0.935,0.785,1.192,1.352
		C225.857,78.99,225.464,79.458,225.072,79.925z M248.534,63.431c0.951-0.223,1.874-0.563,2.706-0.757
		c1.041-0.368,1.789-0.919,2.189-1.889c1.01-2.114,2.048-4.11,3.059-6.226c0.272-0.438,0.574-0.76,0.555-1.381
		C253.913,56.413,251.223,59.922,248.534,63.431z"/>
	<path d="M249.96,98.548l-0.056-0.237c-0.241-1.572-0.009-3.255,0.372-4.847c0.499-1.62,1.146-3.148,1.938-4.586
		c1.711-3.406,3.861-6.537,6.188-9.459c0.3-0.321,0.51-0.496,0.839-0.697c0.091-0.147,0.21-0.176,0.329-0.203
		s0.384,0.036,0.529,0.127c0.44,0.274,0.789,0.693,0.928,1.287c0.11,0.477,0.103,0.979-0.171,1.418
		c-0.272,0.439-0.665,0.907-1.058,1.374c-3.192,3.501-5.358,7.638-7.086,12.05c-0.436,1.354-0.872,2.709-0.539,4.135l0.11,0.475
		c0.222,0.951,0.487,1.014,1.64,1.121c0.237-0.055,0.622-0.02,0.859-0.075c0.831-0.194,1.608-0.626,2.384-1.057
		c2.266-1.029,4.329-2.388,6.274-3.718c4.126-2.717,8.226-5.551,12.004-8.688c1.679-1.394,3.212-2.879,4.599-4.454
		c0.327-0.202,0.481-0.614,0.72-0.669c0.238-0.057,0.357-0.084,0.531,0.126c0.146,0.092,0.174,0.21,0.229,0.448
		c0.056,0.237-0.218,0.677-0.547,0.879c-1.268,1.549-2.682,3.005-4.124,4.344c-5.338,4.502-11.025,8.584-16.914,12.338
		c-1.434,0.835-2.867,1.67-4.53,2.059C252.32,102.758,250.458,100.687,249.96,98.548z M273.376,62.522l-2.626,3.242
		c-0.092,0.146-0.183,0.293-0.42,0.35c-1.608,0.625-2.135,2.125-2.981,3.326c-0.183,0.292-0.246,0.558-0.163,0.914l0.083,0.356
		c0.055,0.237,0.202,0.328,0.258,0.566c0.138,0.594-0.282,0.942-1.059,1.374l-0.237,0.055c-0.713,0.167-1.299-0.198-1.611-1.002
		c-0.139-0.594-0.13-1.097,0.087-1.773c0.309-0.823,0.737-1.675,1.192-2.408c1.101-2.261,2.468-4.459,4.036-6.328
		c0.511-0.494,0.875-1.08,1.414-1.457c0.301-0.32,0.657-0.403,0.895-0.459c0.595-0.139,1.033,0.135,1.346,0.939
		c0.175,0.21,0.23,0.447,0.258,0.566C273.895,61.524,273.769,62.055,273.376,62.522z"/>
	<path d="M282.412,86.22c1.984-3.845,3.996-7.57,6.447-11.023c0.877-1.082,1.724-2.281,2.773-3.152
		c0.512-0.494,0.958-0.725,1.553-0.863c1.307-0.305,2.743,0.487,3.278,2.242c0.277,1.188,0.435,2.404,0.593,3.619l0.36,1.545
		c0.139,0.594,0.25,1.069,0.507,1.636c0.975,2.027,1.854,2.574,4.02,2.194l1.901-0.443c2.139-0.499,4.249-1.116,6.276-2.09
		c3.251-1.636,6.21-3.453,8.563-6.256l0.273-0.439l0.237-0.056c0.238-0.056,0.504,0.008,0.65,0.099l0.056,0.238
		c0.027,0.119-0.036,0.384-0.127,0.53c-0.547,0.88-1.24,1.667-2.08,2.364c-1.742,1.659-3.688,2.989-5.833,3.99
		c-2.476,1.204-4.979,2.289-7.593,2.898l-0.95,0.222c-0.831,0.194-1.69,0.269-2.55,0.344c-2.661-0.131-4.768-1.644-5.762-4.293
		l-0.332-1.426c-0.277-1.188-0.555-2.376-0.686-3.474c-0.055-0.236,0.009-0.502-0.02-0.621c-0.027-0.119-0.027-0.119-0.174-0.211
		l-0.238,0.056c-0.356,0.083-0.537,0.376-0.839,0.697c-1.807,1.925-3.32,4.032-4.805,6.257c-2.971,4.451-5.53,9.057-8.061,13.779
		c-0.456,0.733-0.884,1.585-1.457,2.345c-0.183,0.293-0.365,0.586-0.721,0.669c-0.237,0.056-0.385-0.035-0.65-0.099
		c-0.503-0.009-0.824-0.31-0.935-0.784c-0.027-0.119-0.056-0.238,0.008-0.503c-0.039-1.243,0.215-2.306,0.587-3.394
		c1.62-7.018,4.33-13.662,7.599-20.062c0.182-0.293,0.336-0.704,0.637-1.024c0.302-0.322,0.484-0.615,0.84-0.698
		c0.356-0.083,0.769,0.071,1.208,0.345c0.412,0.154,0.614,0.484,0.697,0.84c0.056,0.238,0.02,0.622-0.254,1.062
		c-2.503,4.843-4.595,9.841-6.421,14.9c-0.183,0.294-0.365,0.587-0.227,1.181C281.374,88.216,281.892,87.218,282.412,86.22z"/>
	<path d="M340.133,60.858c-2.471,2.832-5.062,5.689-7.651,8.549c-0.273,0.439-0.575,0.761-0.437,1.355
		c0.075,0.859-0.261,1.563-0.744,2.178c-0.302,0.32-0.483,0.613-0.721,0.668c-0.237,0.057-0.531-0.126-1.09-0.371l-0.293-0.183
		c-0.237,0.056-0.328,0.202-0.419,0.349c-1.323,1.31-2.765,2.648-4.088,3.959c-1.168,0.898-2.337,1.798-3.561,2.459
		c-0.447,0.23-0.776,0.432-1.133,0.515c-0.712,0.167-1.361,0.067-2.004-0.534c-0.613-0.483-0.989-1.022-1.128-1.617
		c-0.139-0.594-0.012-1.124,0.087-1.773c0.19-0.796,0.674-1.41,1.129-2.142c2.234-2.776,4.845-5.013,8.325-6.2
		c0.328-0.203,0.566-0.258,0.923-0.342c0.712-0.166,1.481-0.094,2.305,0.215c0.266,0.063,0.53,0.127,0.769,0.071
		c0.237-0.056,0.565-0.258,0.748-0.551c2.472-2.831,4.796-5.753,7.268-8.585c0.575-0.76,1.149-1.52,2.017-2.098
		c0.301-0.321,0.629-0.522,0.986-0.605c0.594-0.139,1.152,0.105,1.702,0.855c0.376,0.538,0.606,0.986,0.744,1.58
		c0.056,0.236,0.139,0.594,0.075,0.859c0.023,2.249-0.483,4.371-0.844,6.586c-0.479,2.24-1.078,4.51-1.704,6.66
		c-0.154,0.412-0.337,0.705-0.254,1.061l0.056,0.238c0.146,0.091,0.385,0.035,0.504,0.008c4.027-2.066,8.201-4.043,11.853-6.647
		c1.196-0.78,2.246-1.651,2.975-2.823c0.091-0.146,0.273-0.439,0.511-0.495c0.119-0.028,0.119-0.028,0.265,0.063
		c0.266,0.063,0.44,0.273,0.468,0.393c0.056,0.237-0.035,0.384-0.218,0.677c-0.245,0.558-0.638,1.024-1.03,1.493
		c-1.295,1.43-3.057,2.467-4.673,3.595c-3.406,2.047-6.867,3.856-10.476,5.575c-0.775,0.432-1.287,0.926-1.568,1.869
		c-4.013,12.334-9.408,24.115-16.212,35.223c-3.918,6.299-8.274,12.326-13.712,17.478c-2.766,2.649-5.76,4.851-9.305,6.304
		c-1.014,0.486-1.936,0.827-3.006,1.076c-0.95,0.222-1.928,0.325-2.934,0.309c-5.211,0.213-9.104-2.512-11.154-7.545
		c-0.369-1.041-0.736-2.083-0.986-3.152c-0.804-3.445-0.719-6.848-0.014-10.269c2.234-10.292,7.949-18.013,16.77-23.703
		c5.021-3.175,10.447-5.693,15.81-7.946c7.089-2.906,14.087-5.664,21.002-8.781c1.014-0.486,1.496-1.1,1.869-2.189
		c1.188-4.035,2.377-8.07,3.181-12.141c0.19-0.796,0.381-1.592,0.397-2.598C340.827,60.071,340.553,60.511,340.133,60.858z
		 M335.977,78.488c-0.356,0.083-0.566,0.258-0.805,0.313c-4.739,2.232-9.39,4.318-14.185,6.314
		c-5.481,2.28-11.081,4.588-16.306,7.436c-5.104,2.818-9.861,6.057-13.398,10.765c-5.314,6.751-8.333,14.22-7.289,22.995
		c0.11,0.476,0.131,1.098,0.241,1.573c0.526,2.257,1.501,4.284,3.041,6.055c1.568,1.89,3.536,2.809,6.023,2.729
		c1.124-0.012,2.194-0.261,3.263-0.51c1.663-0.389,3.153-0.986,4.705-1.85c4.21-2.359,7.457-5.622,10.622-9.242
		c5.307-6.248,9.589-13.134,13.431-20.293c4.36-8.157,7.927-16.504,10.906-25.217c0.182-0.293,0.245-0.559,0.189-0.795l-0.055-0.238
		C336.215,78.433,336.096,78.461,335.977,78.488z M319.772,77.758c3.315-1.9,5.87-4.375,8.369-7.087
		C324.989,71.656,320.581,75.315,319.772,77.758z"/>
</g>
</svg>
