<svg height="512pt" viewBox="0 -31 512.00015 512" width="512pt" xmlns="http://www.w3.org/2000/svg"><path d="m377.261719.0390625c-62.132813-1.5039065-100.851563 42.0195315-121.261719 80.4414065-20.410156-38.121094-59.429688-80.4414065-120.0625-80.4414065h-1.199219c-71.136719.6015625-130.96875 61.5312495-134.570312 138.6718755-7.503907 157.277343 237.824219 303.453124 248.328125 309.457031 2.101562 1.5 4.800781 2.101562 7.503906 2.101562s5.402344-.601562 7.503906-2.101562c10.503906-6.003907 255.832032-152.179688 248.328125-309.457031-3.605469-77.140626-63.4375-138.070313-134.570312-138.6718755zm0 0" fill="#f5aa00"/><path d="m511.828125 138.710938c7.503906 157.277343-237.820313 303.453124-248.328125 309.457031-2.097656 1.5-4.800781 2.101562-7.5 2.101562v-369.789062c20.410156-38.421875 59.128906-81.941407 121.257812-80.4414065 71.136719.6015625 130.96875 61.5312495 134.570313 138.6718755zm0 0" fill="#f5aa00"/></svg>